<?xml version="1.0" standalone="no"?>
<!DOCTYPE svg PUBLIC "-//W3C//DTD SVG 20010904//EN"
 "http://www.w3.org/TR/2001/REC-SVG-20010904/DTD/svg10.dtd">
<svg version="1.0" xmlns="http://www.w3.org/2000/svg"
 width="1024.000000pt" height="1024.000000pt" viewBox="0 0 1024.000000 1024.000000"
 preserveAspectRatio="xMidYMid meet">

<g transform="translate(0.000000,1024.000000) scale(0.100000,-0.100000)"
fill="#000000" stroke="none">
<path d="M4815 9024 c-373 -31 -860 -158 -1176 -307 -483 -228 -872 -535
-1224 -967 -275 -337 -470 -752 -610 -1299 -51 -199 -82 -740 -57 -976 44
-396 189 -821 392 -1145 84 -134 217 -320 278 -390 32 -36 96 -112 144 -170
152 -186 353 -363 583 -515 314 -206 458 -285 715 -395 168 -72 403 -135 726
-194 422 -77 648 -74 1099 15 248 48 347 75 550 145 431 151 760 317 991 502
237 189 562 555 708 796 35 57 72 117 83 133 28 38 81 134 152 273 146 286
247 612 285 915 45 364 21 736 -70 1105 -29 119 -130 408 -181 519 -90 200
-275 503 -437 716 -206 272 -519 542 -922 793 -120 75 -529 251 -699 300 -360
106 -607 141 -1010 146 -148 2 -292 2 -320 0z m153 -297 l3 -78 -28 21 c-63
46 -146 35 -183 -25 -19 -31 -19 -43 -13 -315 6 -278 7 -283 30 -311 45 -54
123 -59 175 -12 17 15 18 13 18 -65 0 -44 3 -87 6 -95 4 -12 -8 -17 -63 -22
-96 -9 -306 -51 -421 -84 -382 -110 -742 -340 -981 -626 -216 -259 -390 -646
-432 -960 -15 -119 -6 -453 15 -560 69 -341 204 -624 432 -910 173 -216 349
-348 699 -523 208 -104 406 -158 626 -169 l116 -6 7 -68 c8 -91 4 -101 -36
-82 -47 24 -113 12 -152 -26 l-31 -31 -3 -324 -3 -325 29 -32 c24 -27 37 -33
85 -37 42 -3 63 0 82 12 l25 16 0 -121 0 -122 -102 6 c-196 13 -534 83 -758
157 -219 72 -501 210 -691 337 -73 49 -176 116 -228 148 -246 152 -560 480
-791 824 -278 416 -421 883 -437 1427 -15 527 118 1042 402 1549 226 404 680
843 1160 1121 245 141 546 254 876 328 157 35 386 65 484 63 l80 -2 3 -78z
m498 63 c291 -30 425 -59 724 -162 248 -85 625 -284 821 -433 448 -341 765
-733 988 -1221 161 -354 252 -757 254 -1129 1 -170 -16 -406 -35 -478 -8 -35
-12 -38 -34 -33 -14 4 -702 7 -1530 8 l-1504 1 0 77 c0 77 0 78 28 83 57 11
169 152 202 252 18 54 8 152 -23 219 -31 67 -118 158 -170 177 l-37 13 0 1271
c0 698 3 1294 6 1323 l7 52 57 0 c31 0 141 -9 246 -20z m-498 -1891 l2 -726
-38 -7 c-21 -3 -64 -20 -96 -36 l-58 -31 -56 47 c-31 27 -115 105 -187 174
-71 69 -188 180 -260 245 -71 66 -180 168 -241 227 -111 107 -112 108 -160
108 -75 0 -139 -53 -151 -123 -9 -60 24 -104 219 -283 101 -92 301 -283 444
-423 250 -244 262 -258 273 -307 16 -68 64 -148 125 -209 43 -43 62 -54 118
-70 l66 -18 4 -71 c2 -39 1 -326 -1 -638 l-3 -568 -78 0 c-251 0 -609 134
-900 337 -262 183 -466 433 -586 720 -155 369 -180 789 -67 1147 64 204 198
456 317 595 183 214 488 427 754 527 151 57 413 114 512 110 l45 -1 3 -726z
m160 -928 c70 -49 94 -157 52 -226 -36 -59 -84 -88 -148 -92 -71 -5 -115 16
-155 73 -58 84 -27 207 65 253 56 29 140 25 186 -8z m2695 -815 c180 -2 331
-6 334 -10 3 -3 -8 -66 -26 -140 l-32 -134 -1407 4 c-774 2 -1437 4 -1474 4
l-68 0 0 140 0 140 518 2 c563 3 1634 0 2155 -6z m129 -464 l57 -7 -18 -50
c-10 -27 -38 -90 -62 -139 l-44 -88 -445 -2 -445 -1 2 -50 c4 -70 10 -92 30
-101 10 -4 179 -10 375 -13 196 -3 359 -9 363 -12 7 -7 -149 -220 -229 -313
-48 -56 -281 -274 -389 -364 -134 -112 -414 -270 -732 -415 -150 -69 -408
-154 -625 -206 -155 -38 -508 -91 -600 -91 l-40 0 0 705 1 705 47 0 c26 1 388
0 805 0 520 0 763 3 777 10 16 9 20 21 20 65 0 67 -14 82 -82 90 -29 3 -386 2
-793 -3 -407 -5 -748 -6 -757 -4 -16 4 -18 20 -18 151 l0 147 1373 -3 c754 -2
1398 -7 1429 -11z"/>
<path d="M3478 8175 c-40 -22 -68 -75 -68 -128 0 -38 7 -53 39 -94 59 -74 302
-308 338 -327 43 -22 95 -20 126 4 37 29 69 102 61 136 -4 17 -57 81 -128 155
-67 69 -143 152 -170 184 -69 81 -135 104 -198 70z"/>
<path d="M2650 7437 c-14 -6 -35 -32 -47 -57 -50 -97 -31 -128 181 -304 94
-78 188 -155 208 -170 95 -71 211 -23 211 88 0 56 -13 74 -119 154 -49 37
-141 117 -205 178 -83 80 -125 113 -148 117 -45 9 -52 9 -81 -6z"/>
<path d="M2166 5989 c-61 -53 -57 -144 7 -193 32 -24 33 -24 318 -27 318 -3
318 -3 359 64 38 61 18 128 -50 166 -36 20 -52 21 -319 21 l-280 0 -35 -31z"/>
<path d="M2978 4904 c-410 -339 -398 -328 -398 -387 0 -76 65 -128 143 -113
45 8 96 42 290 190 179 136 205 167 192 233 -3 19 -21 51 -39 70 -28 31 -40
37 -87 41 -52 4 -57 2 -101 -34z"/>
<path d="M3763 4223 c-17 -16 -68 -77 -114 -138 -45 -60 -102 -132 -127 -160
-104 -116 -124 -174 -81 -229 40 -51 117 -71 165 -43 19 11 216 226 317 345
41 50 47 62 47 102 0 54 -32 105 -83 133 -46 25 -87 22 -124 -10z"/>
<path d="M6142 8285 c-18 -8 -37 -26 -43 -42 -15 -38 -8 -341 9 -370 18 -33
95 -42 130 -16 l27 20 3 190 c2 171 1 191 -15 205 -27 24 -74 29 -111 13z"/>
<path d="M6811 7858 c-83 -86 -127 -144 -136 -179 -5 -21 0 -31 30 -57 63 -56
80 -49 211 84 69 70 114 124 114 136 0 11 -15 35 -34 54 -27 27 -42 34 -74 34
-37 0 -46 -6 -111 -72z"/>
<path d="M5335 7801 c-7 -45 10 -88 50 -119 21 -17 29 -18 50 -9 14 7 25 20
25 30 0 36 -81 137 -110 137 -5 0 -11 -18 -15 -39z"/>
<path d="M5969 7720 c-159 -25 -312 -83 -425 -160 -65 -46 -168 -163 -207
-237 -89 -172 -130 -390 -109 -580 21 -189 65 -292 183 -435 37 -46 93 -113
123 -149 66 -80 127 -126 232 -176 l79 -38 150 -3 c83 -1 440 1 796 5 l645 8
76 38 c132 65 222 185 254 340 35 165 -32 362 -161 475 -115 101 -298 159
-460 146 l-81 -6 -53 91 c-30 49 -75 114 -101 143 -25 29 -76 94 -113 144 -81
112 -164 190 -259 245 -205 120 -411 174 -569 149z m208 -205 c98 -18 259 -97
333 -163 l52 -47 -108 0 c-99 0 -150 -7 -284 -36 -65 -15 -155 -63 -231 -125
-73 -58 -145 -157 -183 -249 -19 -47 -30 -60 -76 -88 -68 -40 -129 -126 -163
-224 l-24 -72 -26 82 c-43 133 -50 183 -43 294 18 298 93 433 311 561 132 77
274 99 442 67z m377 -410 c91 -19 159 -55 223 -117 59 -58 98 -125 108 -184 5
-33 3 -43 -9 -47 -29 -12 -16 -24 45 -42 60 -18 61 -18 152 3 175 42 281 23
382 -69 72 -67 110 -143 110 -224 0 -80 -27 -145 -77 -190 -85 -78 -34 -73
-878 -79 l-755 -5 -63 64 c-77 79 -103 136 -103 223 0 57 4 71 35 118 42 62
67 81 132 97 47 12 48 13 59 64 31 136 150 284 278 344 120 56 237 70 361 44z"/>
<path d="M6158 6399 c-32 -18 -41 -48 -24 -74 42 -64 146 -70 146 -9 0 36 -16
61 -50 79 -34 17 -48 18 -72 4z"/>
<path d="M4272 7114 c-56 -34 -77 -74 -62 -119 13 -38 71 -95 98 -95 20 0 77
33 110 63 39 36 23 100 -38 151 -39 32 -54 32 -108 0z"/>
<path d="M3464 5991 c-50 -22 -67 -81 -40 -145 17 -41 49 -51 140 -41 50 6 70
13 88 32 33 35 31 94 -5 130 -23 24 -36 28 -94 30 -38 2 -78 -1 -89 -6z"/>
<path d="M4271 4944 c-76 -68 -73 -142 8 -198 52 -36 72 -33 119 18 46 50 59
86 46 124 -11 31 -87 92 -115 92 -10 0 -37 -16 -58 -36z"/>
<path d="M6146 3950 c-63 -8 -72 -16 -81 -72 -9 -48 0 -74 28 -82 39 -10 938
-7 1047 5 177 18 168 15 172 52 3 32 -21 67 -46 67 -6 0 -69 6 -141 14 -148
17 -886 29 -979 16z"/>
<path d="M5344 3943 c-38 -8 -83 -56 -86 -93 -3 -29 1 -35 27 -43 35 -12 587
-22 651 -12 l44 6 0 54 c0 90 0 90 -335 91 -154 1 -290 0 -301 -3z"/>
<path d="M7966 8777 c-19 -19 -24 -38 -30 -112 -4 -58 -12 -95 -21 -104 -10
-10 -45 -17 -103 -21 -109 -6 -142 -24 -142 -75 0 -21 9 -44 24 -62 22 -25 31
-28 97 -30 41 -1 80 -2 87 -2 6 -1 21 -10 32 -21 16 -16 20 -33 20 -95 0 -67
3 -79 25 -100 32 -33 75 -32 114 1 30 25 31 29 31 102 0 43 4 83 9 91 5 8 43
17 102 23 62 6 103 15 119 27 50 36 52 108 5 129 -14 7 -65 15 -113 18 -61 5
-91 11 -99 22 -7 9 -13 43 -13 76 0 77 -15 133 -40 146 -32 17 -79 12 -104
-13z"/>
<path d="M2307 8450 c-24 -15 -47 -63 -47 -99 0 -40 32 -61 92 -61 40 0 50 4
64 25 19 29 13 82 -14 114 -20 25 -70 35 -95 21z"/>
<path d="M2037 8197 c-31 -30 -44 -106 -25 -144 19 -39 60 -60 94 -48 98 35
90 205 -9 213 -28 2 -42 -3 -60 -21z"/>
<path d="M2075 3593 c-48 -12 -55 -29 -55 -145 l0 -108 -111 0 c-61 0 -119 -5
-130 -10 -24 -13 -49 -61 -49 -95 0 -49 26 -61 150 -68 77 -4 116 -10 121 -19
5 -7 9 -42 9 -78 0 -74 13 -101 60 -120 24 -10 36 -10 59 0 52 21 65 45 72
130 4 43 10 83 14 89 4 7 48 11 113 11 123 0 145 9 161 67 8 29 7 42 -4 60
-26 38 -56 48 -170 53 l-110 5 -5 94 c-5 82 -8 95 -29 112 -13 10 -29 19 -36
19 -7 0 -19 2 -27 4 -7 2 -22 1 -33 -1z"/>
<path d="M8007 3589 c-30 -18 -47 -73 -47 -153 0 -107 0 -106 -84 -106 -151
-1 -206 -31 -206 -111 0 -59 38 -79 151 -79 53 0 92 -5 103 -13 12 -8 20 -36
27 -87 14 -112 17 -118 51 -136 25 -13 38 -14 68 -5 56 17 70 39 77 122 8 108
6 105 123 111 96 5 103 7 131 34 67 67 38 141 -62 155 -30 4 -80 8 -111 8 -71
1 -73 5 -81 131 -5 86 -8 97 -32 118 -28 24 -77 29 -108 11z"/>
<path d="M2891 2610 c-40 -9 -51 -24 -51 -67 0 -47 37 -70 89 -54 45 13 81 14
81 3 0 -16 -59 -91 -83 -107 -13 -8 -29 -27 -35 -41 -15 -31 -16 -131 -1 -139
6 -4 45 -9 88 -12 60 -4 80 -2 87 8 5 8 12 59 15 114 4 55 12 126 20 157 17
73 6 107 -41 130 -37 19 -109 22 -169 8z"/>
<path d="M3428 2611 c-85 -12 -88 -20 -88 -207 l0 -162 31 -26 c38 -32 68 -40
122 -32 103 17 166 122 122 205 -16 32 -33 41 -78 41 -66 0 -107 12 -107 30 0
27 19 37 84 43 61 6 96 27 96 58 0 40 -87 64 -182 50z m87 -281 c8 -26 -19
-70 -43 -70 -9 0 -39 11 -67 23 l-49 23 39 21 c55 28 112 30 120 3z"/>
<path d="M6574 2612 c-33 -22 -46 -105 -19 -116 9 -3 50 -3 92 1 l75 6 -6 -24
c-20 -70 -27 -78 -80 -93 -50 -15 -116 -66 -116 -90 1 -36 73 -58 137 -41 26
7 26 8 8 15 l-20 9 20 0 c29 2 136 36 130 42 -3 3 6 39 20 79 14 40 25 84 25
98 0 36 -38 82 -84 103 -42 19 -160 26 -182 11z"/>
<path d="M6989 2600 c-11 -7 -15 -41 -17 -146 -2 -75 -1 -146 2 -158 6 -25 72
-61 81 -45 4 5 3 50 -1 101 -8 111 0 113 66 15 25 -37 52 -67 61 -67 10 0 36
29 60 68 l44 67 5 -91 c6 -101 17 -124 61 -124 26 0 28 4 35 47 9 62 -2 298
-16 323 -6 11 -21 20 -34 20 -26 0 -45 -20 -106 -108 -38 -55 -45 -61 -54 -45
-15 28 -128 134 -152 143 -11 5 -27 4 -35 0z"/>
<path d="M3192 2503 c2 -10 13 -19 26 -21 17 -3 22 2 22 17 0 16 -6 21 -26 21
-19 0 -25 -5 -22 -17z"/>
<path d="M3182 2318 c-18 -18 -14 -63 7 -82 26 -24 53 -17 69 17 13 26 12 31
-9 53 -25 26 -48 31 -67 12z"/>
<path d="M6780 2252 c-82 -41 -96 -52 -121 -95 l-22 -40 -66 7 c-112 10 -1200
28 -1701 27 -471 0 -889 -12 -1048 -31 -178 -20 -527 -32 -794 -28 -245 5
-281 4 -307 -11 -98 -54 -103 -175 -8 -224 35 -18 83 -19 1294 -20 692 -1
1552 0 1911 2 l652 3 49 -69 c118 -168 240 -213 379 -141 76 39 167 118 192
168 l19 38 128 4 c174 5 219 31 230 132 5 37 1 47 -26 79 -52 59 -100 71 -244
63 -67 -4 -129 -8 -138 -9 -8 -1 -42 29 -74 67 -36 42 -74 76 -99 87 -61 28
-139 24 -206 -9z m142 -133 c36 -18 128 -126 128 -151 0 -12 -12 -39 -26 -59
-34 -50 -154 -131 -186 -127 -32 5 -125 101 -133 138 -8 39 14 80 84 151 60
62 86 71 133 48z m-1061 -95 c86 -8 120 -25 103 -52 -10 -15 -41 -18 -290 -23
-153 -4 -387 -12 -519 -19 -266 -14 -613 -7 -649 12 -11 7 -23 12 -26 11 -13
-3 -4 53 10 62 31 20 1146 28 1371 9z"/>
<path d="M4675 1625 c-81 -41 -127 -140 -104 -228 6 -26 15 -50 20 -53 15 -9
10 -26 -6 -20 -12 4 -15 -3 -15 -31 0 -29 8 -44 43 -78 104 -105 230 -67 273
82 11 39 15 74 10 112 -17 153 -29 179 -101 212 -49 23 -81 24 -120 4z m99
-95 c26 -9 26 -11 26 -114 0 -98 -2 -106 -26 -135 -32 -38 -65 -40 -93 -5 -26
34 -27 66 -1 89 24 21 26 63 5 71 -24 10 -17 43 14 75 32 32 38 33 75 19z"/>
<path d="M4150 1597 c-43 -25 -56 -38 -58 -60 -5 -38 14 -57 54 -57 l34 0 0
-148 c0 -166 9 -196 58 -190 25 3 28 8 34 58 3 30 6 139 7 243 l1 187 -38 0
c-25 0 -57 -11 -92 -33z"/>
<path d="M5445 1566 c-23 -23 -25 -30 -19 -80 4 -30 3 -98 -1 -152 -8 -109 -2
-112 -53 26 -11 30 -35 91 -54 135 -28 67 -38 80 -59 83 -27 3 -32 -5 -73
-115 -21 -56 -76 -264 -76 -285 0 -14 9 -18 39 -18 37 0 39 1 45 40 l6 40 74
0 75 0 24 -42 c14 -26 29 -41 38 -39 8 2 23 5 34 6 18 1 20 8 17 51 -5 73 10
104 50 104 54 0 106 19 128 47 24 31 27 91 5 133 -18 34 -84 76 -137 85 -31 6
-41 3 -63 -19z m119 -87 c45 -36 29 -79 -31 -79 -26 0 -34 5 -39 25 -9 37 3
75 25 75 10 0 30 -9 45 -21z m-271 -111 l16 -48 -40 0 c-45 0 -48 8 -23 70 19
47 25 44 47 -22z"/>
<path d="M5691 1572 c-14 -27 -22 -207 -14 -312 8 -94 8 -95 35 -98 33 -4 37
8 41 133 l2 90 30 -49 c17 -27 39 -60 50 -73 l20 -24 23 24 c13 14 41 58 62
98 l39 74 1 -118 c0 -123 8 -157 38 -157 39 0 42 18 42 216 0 157 -3 194 -15
204 -29 24 -59 3 -120 -89 -58 -88 -75 -105 -75 -78 -1 6 -24 45 -53 86 -55
79 -90 103 -106 73z"/>
<path d="M4397 1482 c-24 -27 -21 -58 6 -66 33 -9 80 -7 97 4 13 8 13 14 -4
45 -16 29 -25 35 -51 35 -18 0 -39 -8 -48 -18z"/>
<path d="M4397 1279 c-17 -23 -12 -47 12 -66 40 -31 105 6 99 55 -3 24 -8 27
-50 30 -38 2 -49 -1 -61 -19z"/>
</g>
</svg>
