<?xml version="1.0" standalone="no"?>
<!DOCTYPE svg PUBLIC "-//W3C//DTD SVG 20010904//EN"
 "http://www.w3.org/TR/2001/REC-SVG-20010904/DTD/svg10.dtd">
<svg version="1.0" xmlns="http://www.w3.org/2000/svg"
 width="1024.000000pt" height="1024.000000pt" viewBox="0 0 1024.000000 1024.000000"
 preserveAspectRatio="xMidYMid meet">

<g transform="translate(0.000000,1024.000000) scale(0.100000,-0.100000)"
fill="#000000" stroke="none">
<path d="M3205 9060 c-228 -24 -560 -126 -745 -228 -355 -195 -615 -461 -793
-809 -76 -148 -113 -246 -147 -384 -68 -280 -64 -128 -64 -2269 l-1 -1935 28
-120 c16 -66 42 -160 58 -210 102 -308 327 -629 592 -844 37 -30 67 -58 67
-63 0 -4 6 -8 14 -8 8 0 21 -6 28 -13 7 -6 32 -24 56 -40 23 -15 42 -34 42
-42 0 -8 5 -15 10 -15 6 0 10 4 10 10 0 5 13 2 29 -8 16 -9 27 -21 24 -26 -3
-5 -1 -6 5 -2 12 7 62 -13 62 -25 0 -5 -7 -6 -15 -3 -11 5 -13 2 -9 -10 3 -9
14 -16 23 -16 26 0 71 -24 71 -37 0 -7 5 -13 11 -13 21 0 134 -54 150 -72 9
-10 22 -18 29 -18 18 0 84 -23 90 -32 3 -3 43 -8 90 -11 98 -5 205 -29 269
-60 28 -14 61 -21 88 -20 24 1 43 -3 43 -8 0 -5 51 -9 113 -10 61 0 137 -5
167 -10 110 -20 448 -37 505 -26 11 3 25 0 32 -5 7 -6 88 -11 180 -13 92 -1
186 -4 208 -5 l40 -3 -45 -7 c-29 -4 14 -8 118 -8 102 -1 162 2 162 8 0 6 60
10 160 10 100 0 160 -4 160 -10 0 -5 9 -10 20 -10 11 0 20 4 20 10 0 5 15 10
33 10 45 0 457 18 602 26 66 4 123 11 126 16 4 6 100 14 215 19 115 4 229 13
254 19 25 6 67 15 93 19 27 4 52 12 55 18 4 6 42 14 85 18 51 5 77 12 77 20 0
14 40 24 104 27 37 1 36 2 -14 7 -40 5 -10 8 110 13 101 4 207 15 274 28 147
29 390 109 514 169 128 63 304 178 401 262 253 218 469 576 556 919 63 248 58
79 62 2129 4 2062 6 1983 -57 2232 -90 355 -275 681 -523 918 -262 251 -536
398 -927 496 -202 52 -86 49 -2075 51 -1017 0 -1881 -2 -1920 -6z m2205 -545
c141 -21 396 -79 495 -111 329 -107 646 -277 903 -482 109 -88 330 -310 421
-424 316 -395 516 -860 612 -1423 54 -318 7 -810 -113 -1175 -125 -383 -303
-688 -586 -1004 -125 -139 -318 -303 -512 -435 -102 -69 -161 -103 -367 -212
-28 -15 -82 -39 -120 -52 -37 -14 -103 -39 -145 -56 -99 -39 -344 -108 -451
-126 -196 -34 -515 -45 -718 -25 -109 11 -236 35 -404 76 -369 91 -787 297
-1105 543 -124 96 -322 292 -405 402 -291 382 -444 703 -539 1125 -55 248 -69
396 -63 679 5 252 17 347 72 580 93 397 308 835 565 1150 156 191 388 400 589
533 191 124 522 279 719 336 117 33 320 81 412 96 188 32 547 34 740 5z
m-2720 -410 c37 -19 50 -43 50 -92 0 -107 -165 -140 -215 -43 -24 46 -19 78
19 116 28 28 42 34 75 34 23 0 55 -7 71 -15z m4915 -5 c18 -11 38 -34 45 -50
11 -26 10 -37 -5 -70 -29 -64 -89 -91 -148 -66 -79 32 -103 122 -48 177 24 24
38 29 77 29 29 0 59 -7 79 -20z m-4911 -4391 c52 -41 245 -360 302 -499 31
-75 42 -184 25 -247 -17 -64 -84 -156 -144 -197 -72 -49 -130 -68 -212 -69
-59 -1 -80 4 -136 31 -87 42 -149 98 -188 171 -85 159 -58 281 131 591 86 143
123 195 154 219 33 26 35 26 68 0z m4869 -21 c82 -109 276 -470 303 -563 32
-112 -11 -242 -110 -333 -75 -68 -146 -95 -251 -96 -106 0 -176 27 -253 99
-101 93 -145 210 -122 323 17 79 83 212 187 374 143 223 147 228 187 228 28 0
40 -7 59 -32z m-4996 -1694 c-6 -6 -47 9 -47 17 0 5 11 3 25 -3 14 -6 24 -13
22 -14z"/>
<path d="M4805 8173 c-102 -14 -341 -69 -428 -99 -357 -125 -642 -286 -884
-501 -147 -131 -364 -392 -476 -573 -74 -121 -182 -355 -230 -500 -91 -273
-112 -445 -104 -861 4 -231 8 -289 26 -369 79 -352 272 -748 506 -1040 104
-130 282 -306 340 -336 43 -23 69 -47 119 -114 114 -151 210 -226 392 -305
161 -69 246 -86 484 -95 145 -6 236 -14 280 -25 79 -21 441 -24 640 -6 69 6
177 15 240 21 143 13 324 57 410 100 133 67 164 94 390 336 30 32 85 82 122
111 69 54 275 276 372 399 139 179 223 322 301 509 135 327 173 509 182 876 9
350 -13 502 -112 796 -126 373 -274 624 -549 927 -121 134 -237 232 -389 333
-342 227 -707 364 -1084 408 -117 14 -468 19 -548 8z m316 -133 c40 -22 49
-61 48 -207 -1 -76 -4 -149 -8 -162 -10 -36 -54 -65 -85 -57 -47 12 -54 37
-58 218 -3 164 -3 167 21 192 26 28 50 32 82 16z m-703 -138 c10 -10 31 -59
46 -108 15 -49 36 -114 47 -145 25 -74 24 -94 -7 -118 -38 -30 -78 -27 -102 7
-21 29 -102 280 -102 315 0 54 80 87 118 49z m1432 -4 c27 -30 26 -51 -18
-217 -37 -141 -62 -191 -95 -191 -25 0 -82 45 -85 68 -7 49 67 307 99 340 26
29 72 28 99 0z m-1066 -29 c61 -48 68 -109 18 -161 -36 -39 -75 -37 -118 6
-28 28 -34 42 -34 76 0 34 6 47 31 71 37 34 67 37 103 8z m702 -7 c33 -26 47
-60 40 -98 -14 -70 -97 -97 -155 -48 -25 21 -31 33 -31 66 0 76 90 126 146 80z
m672 -229 c34 -38 30 -87 -12 -129 -42 -42 -91 -46 -124 -11 -48 51 -34 129
30 160 40 20 76 13 106 -20z m-2015 7 c55 -43 56 -116 1 -159 -40 -31 -71 -27
-115 18 -31 31 -39 46 -39 75 0 74 92 114 153 66z m-418 -76 c9 -4 49 -48 89
-98 165 -207 166 -209 119 -258 -43 -45 -72 -38 -130 30 -64 74 -158 202 -167
226 -7 20 25 80 52 96 21 12 17 11 37 4z m2791 -28 c37 -37 44 -75 18 -97 -9
-7 -55 -62 -102 -122 -46 -59 -98 -115 -113 -123 -26 -13 -32 -13 -59 1 -45
23 -56 54 -35 95 36 71 218 280 243 280 8 0 29 -15 48 -34z m-1154 -76 c128
-25 254 -59 350 -96 73 -28 188 -93 188 -106 0 -4 -19 -20 -42 -35 -24 -15
-55 -38 -70 -51 l-27 -25 -48 23 c-73 34 -240 87 -334 105 -117 23 -350 30
-479 16 -409 -48 -792 -274 -1033 -610 -111 -156 -188 -318 -227 -481 -49
-207 -49 -455 0 -664 18 -78 19 -91 6 -104 -16 -17 -105 -42 -123 -35 -30 12
-73 165 -94 333 -28 236 27 556 135 785 123 260 256 426 492 615 176 141 396
247 646 311 171 43 487 52 660 19z m1332 -264 c39 -16 60 -63 46 -100 -11 -29
-64 -74 -98 -83 -60 -15 -114 61 -90 128 11 32 60 69 91 69 10 0 33 -6 51 -14z
m-3085 -28 c63 -65 27 -158 -61 -158 -86 0 -141 108 -86 167 16 18 32 23 69
23 39 0 51 -5 78 -32z m2708 -222 c75 -78 115 -134 207 -286 81 -133 109 -191
144 -301 59 -184 75 -286 76 -479 0 -156 -3 -187 -26 -287 -30 -126 -60 -203
-80 -203 -11 0 -48 8 -124 25 l-21 5 28 122 c55 236 57 427 7 658 -46 216
-144 400 -297 563 l-64 68 20 42 c11 23 24 58 27 77 12 56 17 70 25 70 5 0 40
-33 78 -74z m710 15 c13 -19 23 -39 23 -46 0 -26 -46 -69 -144 -134 -172 -116
-202 -124 -236 -68 -38 61 -38 61 159 194 77 53 144 92 156 90 10 -1 30 -17
42 -36z m-3678 -67 c75 -48 144 -94 154 -102 34 -30 8 -116 -39 -128 -22 -6
-51 10 -171 92 -130 88 -173 128 -173 162 0 22 43 62 67 62 14 0 83 -36 162
-86z m2605 70 c19 -18 21 -56 5 -87 -30 -57 -296 -364 -436 -504 -62 -62 -113
-115 -113 -117 0 -2 13 -32 29 -67 41 -91 54 -162 49 -265 -5 -112 -35 -181
-113 -263 -50 -53 -65 -62 -140 -86 -75 -25 -95 -27 -177 -22 -51 3 -113 12
-137 21 -63 23 -143 86 -179 142 -56 84 -76 148 -76 254 -1 86 2 101 28 155
88 179 290 288 476 256 69 -12 75 -8 189 111 130 135 466 440 513 466 49 26
61 27 82 6z m-2757 -385 c68 -26 90 -78 58 -140 -48 -92 -205 -43 -205 64 0
26 32 60 70 76 33 13 43 13 77 0z m3900 -24 c34 -39 30 -80 -11 -121 -28 -28
-42 -34 -75 -34 -101 0 -138 128 -51 173 48 25 108 17 137 -18z m-3821 -382
c12 -7 27 -26 34 -43 16 -38 -1 -77 -38 -91 -32 -12 -309 -11 -354 1 -45 13
-81 54 -72 84 3 12 16 32 28 44 21 24 23 24 201 20 112 -2 188 -8 201 -15z
m4035 -12 c36 -37 36 -53 2 -90 l-28 -29 -181 -6 -182 -7 -21 27 c-42 54 -18
120 47 127 20 2 104 4 185 5 l149 2 29 -29z m-4186 -335 c54 -23 69 -70 40
-125 -42 -82 -187 -53 -202 41 -5 31 -1 41 22 62 39 36 87 44 140 22z m4082
-30 c13 -15 23 -40 23 -55 0 -39 -47 -81 -99 -88 -36 -5 -44 -2 -76 30 -46 46
-49 95 -7 127 40 32 126 24 159 -14z m-3878 -322 c12 -15 21 -41 21 -60 0 -60
-35 -80 -280 -155 -134 -41 -154 -38 -194 24 -15 23 -16 32 -7 56 16 36 30 43
176 85 66 19 145 44 175 55 73 26 85 26 109 -5z m3754 -37 c87 -30 169 -63
183 -72 29 -19 46 -57 37 -82 -8 -24 -54 -73 -67 -73 -22 1 -352 131 -376 148
-32 24 -36 68 -10 111 26 41 24 41 233 -32z m-2332 14 c24 -15 60 -45 79 -66
49 -51 71 -61 198 -85 129 -25 155 -21 223 36 22 19 49 34 60 34 12 0 46 -35
92 -92 131 -165 136 -189 46 -244 -34 -20 -76 -52 -95 -71 -28 -28 -34 -41
-34 -77 0 -70 18 -76 92 -28 131 85 220 107 411 100 102 -4 133 -9 185 -30
181 -75 287 -193 357 -402 102 -304 -36 -638 -326 -791 -128 -67 -114 -66
-967 -63 l-767 3 -94 33 c-209 73 -352 216 -418 417 -36 111 -38 266 -4 375
48 154 112 252 215 325 90 63 159 95 244 111 128 23 118 16 118 78 0 82 70
215 177 336 69 78 132 130 157 130 4 0 26 -13 51 -29z"/>
<path d="M5013 6220 c-129 -30 -223 -233 -168 -363 39 -94 138 -160 240 -159
139 0 241 96 253 237 6 83 -18 164 -65 215 -55 61 -169 92 -260 70z m150 -177
c9 -9 22 -33 28 -53 32 -107 -87 -194 -169 -125 -42 35 -57 75 -43 118 29 86
121 116 184 60z"/>
<path d="M2626 3402 c-21 -37 -64 -110 -95 -162 -54 -93 -56 -97 -56 -170 0
-61 4 -82 23 -113 88 -140 269 -131 338 17 28 59 31 121 9 174 -23 54 -168
322 -174 322 -3 0 -24 -31 -45 -68z m65 -265 c37 -25 51 -75 28 -103 -19 -23
-85 -18 -103 8 -20 28 -20 39 -2 83 17 41 31 43 77 12z"/>
<path d="M7433 3342 c-107 -189 -128 -238 -128 -302 0 -48 5 -63 35 -104 45
-62 98 -91 165 -90 70 2 129 34 164 90 61 95 51 146 -70 369 -45 83 -84 153
-88 157 -3 4 -38 -50 -78 -120z m118 -201 c79 -79 -13 -202 -95 -126 -32 30
-34 76 -6 123 26 42 61 43 101 3z"/>
</g>
</svg>
